# xmcd
#
# Track frame offsets:
#	150
#	12600
#	24750
#	38325
#	55575
#	68850
#	81225
#	99300
#	114000
#	123825
#
# Disc length: 1897 seconds
#
# Revision: 1
# Processed by: cddbd v1.4PL0 Copyright (c) Steve Scherf et al.
# Submitted via: audiograbber 1.81.02
#
DISCID=6707670a
DTITLE=Various Artist - Ceske country hity
DYEAR=2002
DGENRE=Country
TTITLE0=Vera Martinova - Nebe, peklo, raj
TTITLE1=Jan Vancura - Zvednete kotvy
TTITLE2=Zelenaci Mirka Hoffmana - Tom Dooley
TTITLE3=Stranici - Hvezdy
TTITLE4=Jana Chladkova - Jedno misto znam
TTITLE5=Jaroslav Samson Lenk - Prusvihovej den
TTITLE6=Podhoubaci - Tak se mi styska
TTITLE7=Miluska Vobornikova - Gabin
TTITLE8=Nada Urbankova - Skalou chcem se stat
TTITLE9=Petr Spaleny - Az me andele
EXTD=CZ
EXTT0=
EXTT1=
EXTT2=
EXTT3=
EXTT4=
EXTT5=
EXTT6=
EXTT7=
EXTT8=
EXTT9=
PLAYORDER=
